<?xml version="1.0" encoding="UTF-8"?>
<svg xmlns="http://www.w3.org/2000/svg" viewBox="0 0 1026.75 1026.75">
  <defs>
    <style>
      .cls-1 {
        stroke-width: 0px;
      }

      .cls-1, .cls-2 {
        fill: #231f20;
      }

      .cls-2 {
        stroke: #fff;
        stroke-miterlimit: 10;
      }
    </style>
  </defs>
  <g id="Layer_2" data-name="Layer 2">
    <path class="cls-1" d="m563.58,428.7c-3.58-18.75-29.67-30.83-29.67-30.83,14.33-12,13.22-34.92,13.22-34.92,2-1.67,37.8,7.41,43.85,20.11,2.42,7.17-25.15,45.22-27.4,45.64Z"/>
    <path class="cls-1" d="m546.25,358.72s1.11-21.78-5.11-33.67c-15.44-2.89-52.78,2-55.44,3-1.78,8.78-48.22,65-48.22,65,0,0-.8,4.62,3.7,7.98,4.5,3.35,2.94,10.52-.37,17.47-5.64-2.36-13.22,8.72-21.31,5.89-7.78-6.78-13.58-17.06-9.42-21.17s11.61-11.06,12.94-14.17c1.33-3.11,31.44-74.56,43-82.56,11.11-4.67,90.56-25.44,105.67-20.22,15.11,5.22,42.11,63.56,42.22,70.67.11,7.11-15.11,22.78-18.78,22.11s-14.33-18.78-48.89-20.33Z"/>
    <path class="cls-1" d="m561.58,435.06s-6-23.67-32.5-32.67c-37.92,7.33-56.58,16.67-57.5,39.83-1.11,19.83,12.5,47.5,74,55,62.56,4.94,86.5-9,108.33,1.5,0,0-48.94-5.06-69.78,12.61l-56.72,34.39s-6.17,1.83-12.5-3.17-11.75-2.68-14.5,3.49-8.92,13.01-19.33,17.67-14.5,30-7.92,26,48.33-26.92,52.08-26.83,148.33-43.67,148.33-43.67c0,0,17.5-10.33,11.83-27.33s-74.17-53.78-123.83-56.83Z"/>
    <path class="cls-1" d="m466.92,451.89s4.5,33.17,49.67,43.33c0,0-63.5,57.5-79.5,63.33,0,0-48.94,26-52.61,33.5,0,0-58.22,13.67-50.44-.22,0,0,17.78-37.78,58.39-49.11,0,0,17.67-11.5,26.83-24.33,9.17-12.83,47.67-66.5,47.67-66.5Z"/>
    <path class="cls-1" d="m607.5,374.06s10.85-11.3,9.68-17.8-10.56-23.66-13.72-30.16c-2.67-5.47,24.75,14.32,34.19,33.06,1.61,3.2,2.7,6.28,3.02,9.07.03.28.06.55.07.82,1.17,19,.89-8.89,0-10.72,0,0,36.17-41.53,35.58-45.36s-14.86-18.88-2.54-25.54c0,0,.68.18,2.79-.04s3.44-10.11,8.44-10.11,15.44,10.5,15.44,15.33-5.14,18.19-11.72,24.36c0,0-26.75,78.75-42.75,83.42,0,0-37.92-21.75-38.5-26.33Z"/>
    <path class="cls-1" d="m223,198.26c14.09,14.59,32.14,18.79,40.75,20.79,26.81,6.23,68.74-6.51,93.17-5.5,57.33-2.17,91.33,46,142.89,48.28,0,0-25.89,5.19-75.97-24.67s-85.44-17.69-113.14-3.78-64,23.56-103.56-23.56c0,0,18.22,42.22,73.78,46.44,72.5-7.89,46.83-38.72,114.44-20,0,0-21.72-10.11-60.67,26s-93.78,58.78-133.56-14.89c0,0,8.39,33.95,39.81,51.91,24.61,14.07,49.35,10.98,63.3,9.2,33.6-4.29,37.42-18,67.2-24.81,42.97-6.3,55.08,16.31,101.8,11.26,76.17-22.72,99.67-14,99.67-14,0,0,7.53-16,18.75-24.22,0,0-16.19,18.78-14.42,27.33,0,0,14.08,15.08,18.5,26.17,0,0-3-10.67,2.5-18.67s10.79-17.54,10.79-17.54c0,0,22.29,10.54,26.71,1.37,3-7.33,4.67-17.5,4.67-17.5,0,0,5.17-5.83,5.17-7.5s-6-9-5.75-10.5,3.5-5.92,3.75-7.08,3.86-27.12-1.25-34.76c-3.26-4.87-21.31-26.43-60.08-15.54-38.78,10.89-83.33,62-153.33,1.78-70-60.22-123.78-50.44-166.89-14.89,0,0,75.56-59.33,161.78,20.22,0,0,61.56,57.11,147.11,4.22,0,0-60.22,59.78-110,24.67-49.78-35.11-106.79-50.74-165.56-28-53.56,20.72-82.44,20.56-98.61-78.28,0,0,3.66,58.41,26.25,86.04Z"/>
    <path class="cls-1" d="m395.58,597.62c-63.33,9.1-83.02,8.77-127-20.57,0,0,20.24,47.31,107.13,44.11v61.49c-.5,20.34-225.91-.61-179.42-125.76,23.06-75.29,260.17-132.04,260.17-132.04,0,0-239.78,43.64-287.67,126.53-71.31,161.78,231.73,172.56,226.78,118.33v-72.1Z"/>
    <g>
      <path class="cls-2" d="m415.69,597.62h23.74v91.25h-23.74v-91.25Z"/>
      <path class="cls-2" d="m458.92,655.14v-57.51h23.89v57.46c0,9.96,10.19,17.21,21.62,17.21s21.76-7.3,21.76-17.21v-57.46h23.89v57.51c0,20.66-20.44,35.72-45.58,35.72s-45.58-15.06-45.58-35.72Z"/>
      <path class="cls-2" d="m640.79,670.65v18.23h-71.22v-91.25h23.74v73.03h47.48Z"/>
      <path class="cls-2" d="m654.12,597.62h23.74v91.25h-23.74v-91.25Z"/>
      <path class="cls-2" d="m770.12,676.14h-47.26l-7.55,12.74h-25.65l56.42-93.52h.73l56.49,93.52h-25.72l-7.47-12.74Zm-9.23-15.62l-14.36-24.4-14.44,24.4h28.8Z"/>
      <path class="cls-2" d="m194.35,740.21c0-17.05,18.58-31.48,40.6-31.48,10.19.11,19.21,3.22,27.41,9.33l-9.07,9.56c-5.34-4.05-11.74-6.52-18.48-6.52-12.56,0-24.55,8.62-24.55,19.19s12.42,19.08,24.5,19.08c7.18,0,13.39-2.96,18.58-6.9l9.02,9.82c-6.89,5.28-15.28,9.26-27.12,9.26-22.56,0-40.89-14.35-40.89-31.33Z"/>
      <path class="cls-2" d="m318.68,761.94h-31.29l-5,8.43h-16.98l37.35-61.91h.49l37.4,61.91h-17.03l-4.95-8.43Zm-6.11-10.34l-9.51-16.15-9.56,16.15h19.06Z"/>
      <path class="cls-2" d="m341.96,759.96l12.56-6.82c3.44,4.27,8.44,6.22,15.18,6.22,7.37,0,12.32-2.32,12.32-5.55,0-4.42-9.36-7.91-17.56-11.06-8.78-3.37-18.43-7.08-18.43-16.71,0-10.46,11.45-17.35,25.81-17.35,10.67,0,19.5,3.41,23.04,10.72l-11.59,6.26c-2.33-3.6-6.84-5.06-11.21-5.06-5.87,0-10.24,2.62-10.24,5.73,0,3.6,5.92,4.83,14.89,8.1,12.95,4.72,21.1,9.82,21.1,19.11,0,11.02-11.64,18.03-28.38,18.03-12.81,0-22.27-4.12-27.51-11.62Z"/>
      <path class="cls-2" d="m456.83,721.99h-19.21v48.38h-15.77v-48.38h-19.26v-12.03h54.23v12.03Z"/>
      <path class="cls-2" d="m481.38,721.92v11.81h26.97v12.11h-26.97v12.48h31.43v12.07h-47.15v-60.41h47.15v11.96h-31.43Z"/>
      <path class="cls-2" d="m571.51,758.31v12.07h-47.15v-60.41h15.72v48.35h31.43Z"/>
      <path class="cls-2" d="m627.49,758.31v12.07h-47.15v-60.41h15.72v48.35h31.43Z"/>
      <path class="cls-2" d="m652.04,721.92v11.81h26.97v12.11h-26.97v12.48h31.43v12.07h-47.15v-60.41h47.15v11.96h-31.43Z"/>
      <path class="cls-2" d="m690.95,759.96l12.56-6.82c3.44,4.27,8.44,6.22,15.18,6.22,7.37,0,12.32-2.32,12.32-5.55,0-4.42-9.36-7.91-17.56-11.06-8.78-3.37-18.43-7.08-18.43-16.71,0-10.46,11.45-17.35,25.81-17.35,10.67,0,19.5,3.41,23.04,10.72l-11.59,6.26c-2.33-3.6-6.84-5.06-11.21-5.06-5.87,0-10.24,2.62-10.24,5.73,0,3.6,5.92,4.83,14.89,8.1,12.95,4.72,21.1,9.82,21.1,19.11,0,11.02-11.64,18.03-28.38,18.03-12.81,0-22.27-4.12-27.51-11.62Z"/>
      <path class="cls-2" d="m772.05,721.92v11.81h26.97v12.11h-26.97v12.48h31.43v12.07h-47.15v-60.41h47.15v11.96h-31.43Z"/>
    </g>
    <path class="cls-2" d="m381.28,799.64h-8.52v21.46h-6.99v-21.46h-8.54v-5.34h24.06v5.34Z"/>
    <path class="cls-2" d="m420.63,821.18l-11.04-12.67v12.67h-6.97l-.02-26.8h11.32c6.48,0,11.79,3.86,11.79,8.68,0,3.44-2.69,6.45-6.41,7.46l9.85,10.66h-8.52Zm-11.06-14.73l4.48.02c2.37.02,4.48-1.46,4.48-3.37s-2.13-3.37-4.48-3.37h-4.48v6.73Z"/>
    <path class="cls-2" d="m467.64,817.2h-13.88l-2.22,3.74h-7.53l16.57-27.46h.22l16.59,27.46h-7.55l-2.19-3.74Zm-2.71-4.59l-4.22-7.16-4.24,7.16h8.46Z"/>
    <path class="cls-2" d="m496.4,794.39h6.97v26.8h-6.97v-26.8Z"/>
    <path class="cls-2" d="m559.29,794.32v27.36h-.32l-20.59-15.48v15.01h-6.97v-27.33h.34l20.55,15.44v-15.01h6.99Z"/>
    <path class="cls-2" d="m587.95,799.69v5.24h11.96v5.37h-11.96v5.54h13.94v5.35h-20.91v-26.8h20.91v5.3h-13.94Z"/>
    <path class="cls-2" d="m642.15,820.6l-11.04-12.67v12.67h-6.97l-.02-26.8h11.32c6.48,0,11.79,3.86,11.79,8.68,0,3.44-2.69,6.45-6.41,7.46l9.85,10.66h-8.52Zm-11.06-14.73l4.48.02c2.37.02,4.48-1.46,4.48-3.37s-2.13-3.37-4.48-3.37h-4.48v6.73Z"/>
    <rect class="cls-2" x="697.31" y="805.94" width="106" height="6.16"/>
    <rect class="cls-2" x="194.35" y="805.89" width="106" height="6.16"/>
    <path class="cls-1" d="m571.51,573.68c.26.49,195.42-26.96,195.35-96.34-.03-28.92-45.62-48.49-45.62-48.49,0,0,30.97,23.39,31.5,51.84.98,53.13-181.48,92.53-181.23,92.99Z"/>
  </g>
  <g id="Layer_6" data-name="Layer 6">
    <path class="cls-1" d="m591.67,256.72s39.69-28.11,41.92-53c0,0-37.31,4.56-65.78,32.11-28.47,27.56-65.31,17.78-65.31,17.78,0,0,18.42-2.73,35.53-15.78,0,0-40.44,27.53-117.11-6.85,0,0,42.33,29.52,78.78,30.85,0,0-24.11,6.38-78.78-26.37l10.3,56.31s19.93,6.5,42.04,3.17,71.11-21.44,99.67-14c0,0,10.15-18.17,18.75-24.22Z"/>
    <path class="cls-1" d="m561.58,435.06s-6-23.67-32.5-32.67c-37.92,7.33-56.58,16.67-57.5,39.83-1.11,19.83,12.5,47.5,74,55,62.56,4.94,86.5-9,108.33,1.5,0,0-48.94-5.06-69.78,12.61l-56.72,34.39s-6.17,1.83-12.5-3.17c-6.33-5-11.75-2.68-14.5,3.49s-8.92,13.01-19.33,17.67c-10.42,4.67-14.5,30-7.92,26,6.58-4,48.33-26.92,52.08-26.83,3.75.08,137-40.39,137-40.39,0,0,5.67-13.61,0-30.61-5.67-17-51-53.78-100.67-56.83Z"/>
    <path class="cls-1" d="m516.58,495.22s-33.52,35.47-76.85,62.13l37.25-84.76s11.94,16.53,39.61,22.63Z"/>
    <path class="cls-1" d="m546.25,358.72s1.11-21.78-5.11-33.67c0,0,23.81-2.94,29-9.56,5.19-6.61,28.06,53.99,14.01,54.99,0,0-15.84-9.99-37.9-11.77Z"/>
  </g>
</svg>