<?xml version="1.0" encoding="UTF-8" standalone="no"?>
<svg
   viewBox="0 0 1026.75 730.21002"
   version="1.1"
   id="svg57"
   sodipodi:docname="GiuliaSVG - Copy.svg"
   inkscape:version="1.4.2 (f4327f4, 2025-05-13)"
   width="1026.75"
   height="730.21002"
   xmlns:inkscape="http://www.inkscape.org/namespaces/inkscape"
   xmlns:sodipodi="http://sodipodi.sourceforge.net/DTD/sodipodi-0.dtd"
   xmlns:xlink="http://www.w3.org/1999/xlink"
   xmlns="http://www.w3.org/2000/svg"
   xmlns:svg="http://www.w3.org/2000/svg">
  <sodipodi:namedview
     id="namedview57"
     pagecolor="#505050"
     bordercolor="#eeeeee"
     borderopacity="1"
     inkscape:showpageshadow="0"
     inkscape:pageopacity="0"
     inkscape:pagecheckerboard="0"
     inkscape:deskcolor="#505050"
     inkscape:zoom="1.1034819"
     inkscape:cx="513.82809"
     inkscape:cy="440.87719"
     inkscape:window-width="2560"
     inkscape:window-height="1351"
     inkscape:window-x="-9"
     inkscape:window-y="-9"
     inkscape:window-maximized="1"
     inkscape:current-layer="svg57" />
  <defs
     id="defs24">
    <style
       id="style1">
      .cls-1 {
        fill: url(#linear-gradient);
      }

      .cls-1, .cls-2, .cls-3, .cls-4, .cls-5, .cls-6, .cls-7 {
        stroke-width: 0px;
      }

      .cls-2 {
        fill: url(#linear-gradient-6);
      }

      .cls-8 {
        fill: none;
        stroke: #fff;
        stroke-miterlimit: 10;
      }

      .cls-3 {
        fill: url(#linear-gradient-5);
      }

      .cls-4 {
        fill: url(#linear-gradient-2);
      }

      .cls-5 {
        fill: url(#linear-gradient-3);
      }

      .cls-6 {
        fill: #db1f26;
      }

      .cls-7 {
        fill: url(#linear-gradient-4);
      }
    </style>
    <linearGradient
       id="linear-gradient"
       x1="157.92999"
       y1="561.97998"
       x2="456.47"
       y2="561.97998"
       gradientUnits="userSpaceOnUse">
      <stop
         offset="0"
         stop-color="#db1f26"
         id="stop1" />
      <stop
         offset=".25"
         stop-color="#d41e25"
         id="stop2" />
      <stop
         offset=".59"
         stop-color="#c21e24"
         id="stop3" />
      <stop
         offset=".99"
         stop-color="#a51e22"
         id="stop4" />
      <stop
         offset="1"
         stop-color="#a51e22"
         id="stop5" />
    </linearGradient>
    <linearGradient
       id="linear-gradient-2"
       x1="594.07001"
       y1="517.21997"
       x2="761.38"
       y2="517.21997"
       gradientTransform="rotate(14.01,712.8479,498.01579)"
       xlink:href="#linear-gradient" />
    <linearGradient
       id="linear-gradient-3"
       x1="422.81"
       y1="249.81"
       x2="865.19"
       y2="249.81"
       gradientUnits="userSpaceOnUse">
      <stop
         offset="0"
         stop-color="#db1f26"
         id="stop6" />
      <stop
         offset=".07"
         stop-color="#ca1e24"
         id="stop7" />
      <stop
         offset=".18"
         stop-color="#b91e23"
         id="stop8" />
      <stop
         offset=".31"
         stop-color="#ad1e22"
         id="stop9" />
      <stop
         offset=".49"
         stop-color="#a61e22"
         id="stop10" />
      <stop
         offset="1"
         stop-color="#a51e22"
         id="stop11" />
    </linearGradient>
    <linearGradient
       id="linear-gradient-4"
       x1="469.98001"
       y1="496.26999"
       x2="673.25"
       y2="496.26999"
       gradientUnits="userSpaceOnUse">
      <stop
         offset=".15"
         stop-color="#db1f26"
         id="stop12" />
      <stop
         offset=".16"
         stop-color="#da1e25"
         id="stop13" />
      <stop
         offset=".34"
         stop-color="#c21e24"
         id="stop14" />
      <stop
         offset=".53"
         stop-color="#b21e22"
         id="stop15" />
      <stop
         offset=".74"
         stop-color="#a81e22"
         id="stop16" />
      <stop
         offset="1"
         stop-color="#a51e22"
         id="stop17" />
    </linearGradient>
    <linearGradient
       id="linear-gradient-5"
       x1="439.54001"
       y1="514.96997"
       x2="510.26999"
       y2="514.96997"
       gradientUnits="userSpaceOnUse">
      <stop
         offset=".5"
         stop-color="#db1f26"
         id="stop18" />
      <stop
         offset=".85"
         stop-color="#b51e23"
         id="stop19" />
      <stop
         offset="1"
         stop-color="#a51e22"
         id="stop20" />
    </linearGradient>
    <linearGradient
       id="linear-gradient-6"
       x1="563.90997"
       y1="366.48999"
       x2="566.04999"
       y2="317.22"
       gradientUnits="userSpaceOnUse">
      <stop
         offset="0"
         stop-color="#db1f26"
         id="stop21" />
      <stop
         offset=".23"
         stop-color="#cb1e24"
         id="stop22" />
      <stop
         offset=".72"
         stop-color="#af1e22"
         id="stop23" />
      <stop
         offset="1"
         stop-color="#a51e22"
         id="stop24" />
    </linearGradient>
    <linearGradient
       inkscape:collect="always"
       xlink:href="#linear-gradient"
       id="linearGradient1"
       gradientUnits="userSpaceOnUse"
       x1="157.92999"
       y1="561.97998"
       x2="456.47"
       y2="561.97998" />
  </defs>
  <g
     id="Layer_2"
     data-name="Layer 2"
     transform="translate(0,-102)">
    <path
       class="cls-6"
       d="m 563.58,428.7 c -3.58,-18.75 -29.67,-30.83 -29.67,-30.83 14.33,-12 13.22,-34.92 13.22,-34.92 2,-1.67 37.8,7.41 43.85,20.11 2.42,7.17 -25.15,45.22 -27.4,45.64 z"
       id="path24" />
    <path
       class="cls-6"
       d="m 546.25,358.72 c 0,0 1.11,-21.78 -5.11,-33.67 -15.44,-2.89 -52.78,2 -55.44,3 -1.78,8.78 -48.22,65 -48.22,65 0,0 -0.8,4.62 3.7,7.98 4.5,3.35 2.94,10.52 -0.37,17.47 -5.64,-2.36 -13.22,8.72 -21.31,5.89 -7.78,-6.78 -13.58,-17.06 -9.42,-21.17 4.16,-4.11 11.61,-11.06 12.94,-14.17 1.33,-3.11 31.44,-74.56 43,-82.56 11.11,-4.67 90.56,-25.44 105.67,-20.22 15.11,5.22 42.11,63.56 42.22,70.67 0.11,7.11 -15.11,22.78 -18.78,22.11 -3.67,-0.67 -14.33,-18.78 -48.89,-20.33 z"
       id="path25" />
    <path
       class="cls-6"
       d="m 561.58,435.06 c 0,0 -6,-23.67 -32.5,-32.67 -37.92,7.33 -56.58,16.67 -57.5,39.83 -1.11,19.83 12.5,47.5 74,55 62.56,4.94 86.5,-9 108.33,1.5 0,0 -48.94,-5.06 -69.78,12.61 l -56.72,34.39 c 0,0 -6.17,1.83 -12.5,-3.17 -6.33,-5 -11.75,-2.68 -14.5,3.49 -2.75,6.17 -8.92,13.01 -19.33,17.67 -10.41,4.66 -14.5,30 -7.92,26 6.58,-4 48.33,-26.92 52.08,-26.83 3.75,0.09 148.33,-43.67 148.33,-43.67 0,0 17.5,-10.33 11.83,-27.33 -5.67,-17 -74.17,-53.78 -123.83,-56.83 z"
       id="path26" />
    <path
       class="cls-6"
       d="m 466.92,451.89 c 0,0 4.5,33.17 49.67,43.33 0,0 -63.5,57.5 -79.5,63.33 0,0 -48.94,26 -52.61,33.5 0,0 -58.22,13.67 -50.44,-0.22 0,0 17.78,-37.78 58.39,-49.11 0,0 17.67,-11.5 26.83,-24.33 9.17,-12.83 47.67,-66.5 47.67,-66.5 z"
       id="path27" />
    <path
       class="cls-6"
       d="m 607.5,374.06 c 0,0 10.85,-11.3 9.68,-17.8 -1.17,-6.5 -10.56,-23.66 -13.72,-30.16 -2.67,-5.47 24.75,14.32 34.19,33.06 1.61,3.2 2.7,6.28 3.02,9.07 0.03,0.28 0.06,0.55 0.07,0.82 1.17,19 0.89,-8.89 0,-10.72 0,0 36.17,-41.53 35.58,-45.36 -0.59,-3.83 -14.86,-18.88 -2.54,-25.54 0,0 0.68,0.18 2.79,-0.04 2.11,-0.22 3.44,-10.11 8.44,-10.11 5,0 15.44,10.5 15.44,15.33 0,4.83 -5.14,18.19 -11.72,24.36 0,0 -26.75,78.75 -42.75,83.42 0,0 -37.92,-21.75 -38.5,-26.33 z"
       id="path28" />
    <path
       class="cls-6"
       d="m 223,198.26 c 14.09,14.59 32.14,18.79 40.75,20.79 26.81,6.23 68.74,-6.51 93.17,-5.5 57.33,-2.17 91.33,46 142.89,48.28 0,0 -25.89,5.19 -75.97,-24.67 -50.08,-29.86 -85.44,-17.69 -113.14,-3.78 -27.7,13.91 -64,23.56 -103.56,-23.56 0,0 18.22,42.22 73.78,46.44 72.5,-7.89 46.83,-38.72 114.44,-20 0,0 -21.72,-10.11 -60.67,26 -38.95,36.11 -93.78,58.78 -133.56,-14.89 0,0 8.39,33.95 39.81,51.91 24.61,14.07 49.35,10.98 63.3,9.2 33.6,-4.29 37.42,-18 67.2,-24.81 42.97,-6.3 55.08,16.31 101.8,11.26 76.17,-22.72 99.67,-14 99.67,-14 0,0 7.53,-16 18.75,-24.22 0,0 -16.19,18.78 -14.42,27.33 0,0 14.08,15.08 18.5,26.17 0,0 -3,-10.67 2.5,-18.67 5.5,-8 10.79,-17.54 10.79,-17.54 0,0 22.29,10.54 26.71,1.37 3,-7.33 4.67,-17.5 4.67,-17.5 0,0 5.17,-5.83 5.17,-7.5 0,-1.67 -6,-9 -5.75,-10.5 0.25,-1.5 3.5,-5.92 3.75,-7.08 0.25,-1.16 3.86,-27.12 -1.25,-34.76 -3.26,-4.87 -21.31,-26.43 -60.08,-15.54 -38.78,10.89 -83.33,62 -153.33,1.78 -70,-60.22 -123.78,-50.44 -166.89,-14.89 0,0 75.56,-59.33 161.78,20.22 0,0 61.56,57.11 147.11,4.22 0,0 -60.22,59.78 -110,24.67 -49.78,-35.11 -106.79,-50.74 -165.56,-28 -53.56,20.72 -82.44,20.56 -98.61,-78.28 0,0 3.66,58.41 26.25,86.04 z"
       id="path29" />
    <path
       class="cls-1"
       d="m 395.58,597.62 c -63.33,9.1 -83.02,8.77 -127,-20.57 0,0 20.24,47.31 107.13,44.11 v 61.49 c -0.5,20.34 -225.91,-0.61 -179.42,-125.76 23.06,-75.29 260.17,-132.04 260.17,-132.04 0,0 -239.78,43.64 -287.67,126.53 -71.31,161.78 231.73,172.56 226.78,118.33 v -72.1 z"
       id="path30"
       style="fill:url(#linearGradient1)" />
    <g
       id="g45"
       style="fill:#000000;fill-opacity:1">
      <path
         class="cls-8"
         d="m 415.69,597.62 h 23.74 v 91.25 h -23.74 z"
         id="path31"
         style="fill:#000000;fill-opacity:1" />
      <path
         class="cls-8"
         d="m 458.92,655.14 v -57.51 h 23.89 v 57.46 c 0,9.96 10.19,17.21 21.62,17.21 11.43,0 21.76,-7.3 21.76,-17.21 v -57.46 h 23.89 v 57.51 c 0,20.66 -20.44,35.72 -45.58,35.72 -25.14,0 -45.58,-15.06 -45.58,-35.72 z"
         id="path32"
         style="fill:#000000;fill-opacity:1" />
      <path
         class="cls-8"
         d="m 640.79,670.65 v 18.23 h -71.22 v -91.25 h 23.74 v 73.03 h 47.48 z"
         id="path33"
         style="fill:#000000;fill-opacity:1" />
      <path
         class="cls-8"
         d="m 654.12,597.62 h 23.74 v 91.25 h -23.74 z"
         id="path34"
         style="fill:#000000;fill-opacity:1" />
      <path
         class="cls-8"
         d="m 770.12,676.14 h -47.26 l -7.55,12.74 h -25.65 l 56.42,-93.52 h 0.73 l 56.49,93.52 h -25.72 l -7.47,-12.74 z m -9.23,-15.62 -14.36,-24.4 -14.44,24.4 z"
         id="path35"
         style="fill:#000000;fill-opacity:1" />
      <path
         class="cls-8"
         d="m 194.35,740.21 c 0,-17.05 18.58,-31.48 40.6,-31.48 10.19,0.11 19.21,3.22 27.41,9.33 l -9.07,9.56 c -5.34,-4.05 -11.74,-6.52 -18.48,-6.52 -12.56,0 -24.55,8.62 -24.55,19.19 0,10.57 12.42,19.08 24.5,19.08 7.18,0 13.39,-2.96 18.58,-6.9 l 9.02,9.82 c -6.89,5.28 -15.28,9.26 -27.12,9.26 -22.56,0 -40.89,-14.35 -40.89,-31.33 z"
         id="path36"
         style="fill:#000000;fill-opacity:1" />
      <path
         class="cls-8"
         d="m 318.68,761.94 h -31.29 l -5,8.43 h -16.98 l 37.35,-61.91 h 0.49 l 37.4,61.91 h -17.03 l -4.95,-8.43 z m -6.11,-10.34 -9.51,-16.15 -9.56,16.15 h 19.06 z"
         id="path37"
         style="fill:#000000;fill-opacity:1" />
      <path
         class="cls-8"
         d="m 341.96,759.96 12.56,-6.82 c 3.44,4.27 8.44,6.22 15.18,6.22 7.37,0 12.32,-2.32 12.32,-5.55 0,-4.42 -9.36,-7.91 -17.56,-11.06 -8.78,-3.37 -18.43,-7.08 -18.43,-16.71 0,-10.46 11.45,-17.35 25.81,-17.35 10.67,0 19.5,3.41 23.04,10.72 l -11.59,6.26 c -2.33,-3.6 -6.84,-5.06 -11.21,-5.06 -5.87,0 -10.24,2.62 -10.24,5.73 0,3.6 5.92,4.83 14.89,8.1 12.95,4.72 21.1,9.82 21.1,19.11 0,11.02 -11.64,18.03 -28.38,18.03 -12.81,0 -22.27,-4.12 -27.51,-11.62 z"
         id="path38"
         style="fill:#000000;fill-opacity:1" />
      <path
         class="cls-8"
         d="m 456.83,721.99 h -19.21 v 48.38 h -15.77 v -48.38 h -19.26 v -12.03 h 54.23 v 12.03 z"
         id="path39"
         style="fill:#000000;fill-opacity:1" />
      <path
         class="cls-8"
         d="m 481.38,721.92 v 11.81 h 26.97 v 12.11 h -26.97 v 12.48 h 31.43 v 12.07 h -47.15 v -60.41 h 47.15 v 11.96 h -31.43 z"
         id="path40"
         style="fill:#000000;fill-opacity:1" />
      <path
         class="cls-8"
         d="m 571.51,758.31 v 12.07 h -47.15 v -60.41 h 15.72 v 48.35 h 31.43 z"
         id="path41"
         style="fill:#000000;fill-opacity:1" />
      <path
         class="cls-8"
         d="m 627.49,758.31 v 12.07 h -47.15 v -60.41 h 15.72 v 48.35 h 31.43 z"
         id="path42"
         style="fill:#000000;fill-opacity:1" />
      <path
         class="cls-8"
         d="m 652.04,721.92 v 11.81 h 26.97 v 12.11 h -26.97 v 12.48 h 31.43 v 12.07 h -47.15 v -60.41 h 47.15 v 11.96 h -31.43 z"
         id="path43"
         style="fill:#000000;fill-opacity:1" />
      <path
         class="cls-8"
         d="m 690.95,759.96 12.56,-6.82 c 3.44,4.27 8.44,6.22 15.18,6.22 7.37,0 12.32,-2.32 12.32,-5.55 0,-4.42 -9.36,-7.91 -17.56,-11.06 -8.78,-3.37 -18.43,-7.08 -18.43,-16.71 0,-10.46 11.45,-17.35 25.81,-17.35 10.67,0 19.5,3.41 23.04,10.72 l -11.59,6.26 c -2.33,-3.6 -6.84,-5.06 -11.21,-5.06 -5.87,0 -10.24,2.62 -10.24,5.73 0,3.6 5.92,4.83 14.89,8.1 12.95,4.72 21.1,9.82 21.1,19.11 0,11.02 -11.64,18.03 -28.38,18.03 -12.81,0 -22.27,-4.12 -27.51,-11.62 z"
         id="path44"
         style="fill:#000000;fill-opacity:1" />
      <path
         class="cls-8"
         d="m 772.05,721.92 v 11.81 h 26.97 v 12.11 h -26.97 v 12.48 h 31.43 v 12.07 h -47.15 v -60.41 h 47.15 v 11.96 h -31.43 z"
         id="path45"
         style="fill:#000000;fill-opacity:1" />
    </g>
    <path
       class="cls-8"
       d="m 381.28,799.64 h -8.52 v 21.46 h -6.99 v -21.46 h -8.54 v -5.34 h 24.06 v 5.34 z"
       id="path46"
       style="fill:#000000;fill-opacity:1" />
    <path
       class="cls-8"
       d="m 420.63,821.18 -11.04,-12.67 v 12.67 h -6.97 l -0.02,-26.8 h 11.32 c 6.48,0 11.79,3.86 11.79,8.68 0,3.44 -2.69,6.45 -6.41,7.46 l 9.85,10.66 z m -11.06,-14.73 4.48,0.02 c 2.37,0.02 4.48,-1.46 4.48,-3.37 0,-1.91 -2.13,-3.37 -4.48,-3.37 h -4.48 v 6.73 z"
       id="path47"
       style="fill:#000000;fill-opacity:1" />
    <path
       class="cls-8"
       d="m 467.64,817.2 h -13.88 l -2.22,3.74 h -7.53 l 16.57,-27.46 h 0.22 l 16.59,27.46 h -7.55 l -2.19,-3.74 z m -2.71,-4.59 -4.22,-7.16 -4.24,7.16 z"
       id="path48"
       style="fill:#000000;fill-opacity:1" />
    <path
       class="cls-8"
       d="m 496.4,794.39 h 6.97 v 26.8 h -6.97 z"
       id="path49"
       style="fill:#000000;fill-opacity:1" />
    <path
       class="cls-8"
       d="m 559.29,794.32 v 27.36 h -0.32 L 538.38,806.2 v 15.01 h -6.97 v -27.33 h 0.34 l 20.55,15.44 v -15.01 h 6.99 z"
       id="path50"
       style="fill:#000000;fill-opacity:1" />
    <path
       class="cls-8"
       d="m 587.95,799.69 v 5.24 h 11.96 v 5.37 h -11.96 v 5.54 h 13.94 v 5.35 h -20.91 v -26.8 h 20.91 v 5.3 z"
       id="path51"
       style="fill:#000000;fill-opacity:1" />
    <path
       class="cls-8"
       d="m 642.15,820.6 -11.04,-12.67 v 12.67 h -6.97 l -0.02,-26.8 h 11.32 c 6.48,0 11.79,3.86 11.79,8.68 0,3.44 -2.69,6.45 -6.41,7.46 l 9.85,10.66 z m -11.06,-14.73 4.48,0.02 c 2.37,0.02 4.48,-1.46 4.48,-3.37 0,-1.91 -2.13,-3.37 -4.48,-3.37 h -4.48 v 6.73 z"
       id="path52"
       style="fill:#000000;fill-opacity:1" />
    <rect
       class="cls-8"
       x="697.31"
       y="805.94"
       width="106"
       height="6.1599998"
       id="rect52"
       style="fill:#000000;fill-opacity:1" />
    <rect
       class="cls-8"
       x="194.35001"
       y="805.89001"
       width="106"
       height="6.1599998"
       id="rect53"
       style="fill:#000000;fill-opacity:1" />
    <path
       class="cls-4"
       d="m 571.51,573.68 c 0.26,0.49 195.42,-26.96 195.35,-96.34 -0.03,-28.92 -45.62,-48.49 -45.62,-48.49 0,0 30.97,23.39 31.5,51.84 0.98,53.13 -181.48,92.53 -181.23,92.99 z"
       id="path53"
       style="fill:url(#linear-gradient-2)" />
  </g>
  <g
     id="Layer_6"
     data-name="Layer 6"
     transform="translate(0,-102)">
    <path
       class="cls-5"
       d="m 591.67,256.72 c 0,0 39.69,-28.11 41.92,-53 0,0 -37.31,4.56 -65.78,32.11 -28.47,27.56 -65.31,17.78 -65.31,17.78 0,0 18.42,-2.73 35.53,-15.78 0,0 -40.44,27.53 -117.11,-6.85 0,0 42.33,29.52 78.78,30.85 0,0 -24.11,6.38 -78.78,-26.37 l 10.3,56.31 c 0,0 19.93,6.5 42.04,3.17 22.11,-3.33 71.11,-21.44 99.67,-14 0,0 10.15,-18.17 18.75,-24.22 z"
       id="path54"
       style="fill:url(#linear-gradient-3)" />
    <path
       class="cls-7"
       d="m 561.58,435.06 c 0,0 -6,-23.67 -32.5,-32.67 -37.92,7.33 -56.58,16.67 -57.5,39.83 -1.11,19.83 12.5,47.5 74,55 62.56,4.94 86.5,-9 108.33,1.5 0,0 -48.94,-5.06 -69.78,12.61 l -56.72,34.39 c 0,0 -6.17,1.83 -12.5,-3.17 -6.33,-5 -11.75,-2.68 -14.5,3.49 -2.75,6.17 -8.92,13.01 -19.33,17.67 -10.42,4.67 -14.5,30 -7.92,26 6.58,-4 48.33,-26.92 52.08,-26.83 3.75,0.08 137,-40.39 137,-40.39 0,0 5.67,-13.61 0,-30.61 -5.67,-17 -51,-53.78 -100.67,-56.83 z"
       id="path55"
       style="fill:url(#linear-gradient-4)" />
    <path
       class="cls-3"
       d="m 516.58,495.22 c 0,0 -33.52,35.47 -76.85,62.13 l 37.25,-84.76 c 0,0 11.94,16.53 39.61,22.63 z"
       id="path56"
       style="fill:url(#linear-gradient-5)" />
    <path
       class="cls-2"
       d="m 546.25,358.72 c 0,0 1.11,-21.78 -5.11,-33.67 0,0 23.81,-2.94 29,-9.56 5.19,-6.61 28.06,53.99 14.01,54.99 0,0 -15.84,-9.99 -37.9,-11.77 z"
       id="path57"
       style="fill:url(#linear-gradient-6)" />
  </g>
</svg>
